# Blender 4.0.2
# www.blender.org
mtllib missile.mtl
o Cylinder
v -0.000000 2.506865 -1.221379
v -0.000000 3.493135 -1.014365
v 0.043189 2.506865 -1.217125
v 0.002802 3.493135 -1.014089
v 0.084718 2.506865 -1.204527
v 0.005497 3.493135 -1.013272
v 0.122991 2.506865 -1.184070
v 0.007981 3.493135 -1.011944
v 0.156538 2.506865 -1.156538
v 0.010158 3.493135 -1.010158
v 0.184070 2.506865 -1.122991
v 0.011944 3.493135 -1.007981
v 0.204527 2.506865 -1.084718
v 0.013272 3.493135 -1.005497
v 0.217125 2.506865 -1.043189
v 0.014089 3.493135 -1.002802
v 0.221379 2.506865 -1.000000
v 0.014365 3.493135 -1.000000
v 0.217125 2.506865 -0.956811
v 0.014089 3.493135 -0.997198
v 0.204527 2.506865 -0.915282
v 0.013272 3.493135 -0.994503
v 0.184070 2.506865 -0.877009
v 0.011944 3.493135 -0.992019
v 0.156538 2.506865 -0.843462
v 0.010158 3.493135 -0.989842
v 0.122991 2.506865 -0.815930
v 0.007981 3.493135 -0.988056
v 0.084718 2.506865 -0.795473
v 0.005497 3.493135 -0.986728
v 0.043189 2.506865 -0.782875
v 0.002802 3.493135 -0.985911
v -0.000000 2.506865 -0.778621
v -0.000000 3.493135 -0.985635
v -0.043189 2.506865 -0.782875
v -0.002803 3.493135 -0.985911
v -0.084718 2.506865 -0.795473
v -0.005497 3.493135 -0.986728
v -0.122992 2.506865 -0.815930
v -0.007981 3.493135 -0.988056
v -0.156538 2.506865 -0.843462
v -0.010158 3.493135 -0.989842
v -0.184070 2.506865 -0.877009
v -0.011944 3.493135 -0.992019
v -0.204527 2.506865 -0.915282
v -0.013272 3.493135 -0.994503
v -0.217125 2.506865 -0.956811
v -0.014089 3.493135 -0.997198
v -0.221379 2.506865 -1.000000
v -0.014365 3.493135 -1.000000
v -0.217125 2.506865 -1.043189
v -0.014089 3.493135 -1.002802
v -0.204527 2.506865 -1.084718
v -0.013272 3.493135 -1.005497
v -0.184070 2.506865 -1.122991
v -0.011944 3.493135 -1.007981
v -0.156538 2.506865 -1.156538
v -0.010158 3.493135 -1.010158
v -0.122992 2.506865 -1.184070
v -0.007981 3.493135 -1.011944
v -0.084718 2.506865 -1.204527
v -0.005497 3.493135 -1.013272
v -0.043189 2.506865 -1.217125
v -0.002803 3.493135 -1.014089
v -0.000000 -0.225734 -1.221379
v 0.043189 -0.225734 -1.217125
v 0.084718 -0.225734 -1.204527
v 0.122991 -0.225734 -1.184070
v 0.156538 -0.225734 -1.156538
v 0.184069 -0.225734 -1.122991
v 0.204527 -0.225734 -1.084718
v 0.217125 -0.225734 -1.043189
v 0.221379 -0.225734 -1.000000
v 0.217125 -0.225734 -0.956811
v 0.204527 -0.225734 -0.915282
v 0.184069 -0.225734 -0.877009
v 0.156538 -0.225734 -0.843462
v 0.122991 -0.225734 -0.815930
v 0.084718 -0.225734 -0.795473
v 0.043189 -0.225734 -0.782875
v -0.000000 -0.225734 -0.778621
v -0.043189 -0.225734 -0.782875
v -0.084718 -0.225734 -0.795473
v -0.122992 -0.225734 -0.815930
v -0.156539 -0.225734 -0.843462
v -0.184070 -0.225734 -0.877009
v -0.204527 -0.225734 -0.915282
v -0.217125 -0.225734 -0.956811
v -0.221379 -0.225734 -1.000000
v -0.217125 -0.225734 -1.043189
v -0.204527 -0.225734 -1.084718
v -0.184070 -0.225734 -1.122991
v -0.156539 -0.225734 -1.156538
v -0.122992 -0.225734 -1.184070
v -0.084718 -0.225734 -1.204527
v -0.043189 -0.225734 -1.217125
vn -0.0000 0.1026 -0.9947
vn -0.0000 0.7574 -0.6529
vn 0.1274 0.7574 -0.6404
vn 0.1941 0.1026 -0.9756
vn 0.2499 0.7574 -0.6032
vn 0.3807 0.1026 -0.9190
vn 0.3627 0.7574 -0.5429
vn 0.5526 0.1026 -0.8271
vn 0.4617 0.7574 -0.4617
vn 0.7034 0.1026 -0.7034
vn 0.5429 0.7574 -0.3627
vn 0.8271 0.1026 -0.5526
vn 0.6032 0.7574 -0.2499
vn 0.9190 0.1026 -0.3807
vn 0.6404 0.7574 -0.1274
vn 0.9756 0.1026 -0.1941
vn 0.6529 0.7574 -0.0000
vn 0.9947 0.1026 -0.0000
vn 0.6404 0.7574 0.1274
vn 0.9756 0.1026 0.1941
vn 0.6032 0.7574 0.2499
vn 0.9190 0.1026 0.3807
vn 0.5429 0.7574 0.3627
vn 0.8271 0.1026 0.5526
vn 0.4617 0.7574 0.4617
vn 0.7034 0.1026 0.7034
vn 0.3627 0.7574 0.5429
vn 0.5526 0.1026 0.8271
vn 0.2499 0.7574 0.6032
vn 0.3807 0.1026 0.9190
vn 0.1274 0.7574 0.6404
vn 0.1941 0.1026 0.9756
vn -0.0000 0.7574 0.6529
vn -0.0000 0.1026 0.9947
vn -0.1274 0.7574 0.6404
vn -0.1941 0.1026 0.9756
vn -0.2499 0.7574 0.6032
vn -0.3807 0.1026 0.9190
vn -0.3627 0.7574 0.5429
vn -0.5526 0.1026 0.8271
vn -0.4617 0.7574 0.4617
vn -0.7034 0.1026 0.7034
vn -0.5429 0.7574 0.3627
vn -0.8271 0.1026 0.5526
vn -0.6032 0.7574 0.2499
vn -0.9190 0.1026 0.3807
vn -0.6404 0.7574 0.1274
vn -0.9756 0.1026 0.1941
vn -0.6529 0.7574 -0.0000
vn -0.9947 0.1026 -0.0000
vn -0.6404 0.7574 -0.1274
vn -0.9756 0.1026 -0.1941
vn -0.6032 0.7574 -0.2499
vn -0.9190 0.1026 -0.3807
vn -0.5429 0.7574 -0.3627
vn -0.8271 0.1026 -0.5526
vn -0.4617 0.7574 -0.4617
vn -0.7034 0.1026 -0.7034
vn -0.3627 0.7574 -0.5429
vn -0.5526 0.1026 -0.8271
vn -0.2499 0.7574 -0.6032
vn -0.3807 0.1026 -0.9190
vn -0.1274 0.7574 -0.6404
vn -0.1941 0.1026 -0.9756
vn -0.4044 -0.6857 -0.6052
vn -0.5147 -0.6857 -0.5147
vn -0.0000 -0.6857 -0.7279
vn 0.1420 -0.6857 -0.7139
vn 0.2786 -0.6857 -0.6725
vn 0.4044 -0.6857 -0.6052
vn 0.5147 -0.6857 -0.5147
vn 0.6052 -0.6857 -0.4044
vn 0.6725 -0.6857 -0.2786
vn 0.7139 -0.6857 -0.1420
vn 0.7279 -0.6857 -0.0000
vn 0.7139 -0.6857 0.1420
vn 0.6725 -0.6857 0.2786
vn 0.6052 -0.6857 0.4044
vn 0.5147 -0.6857 0.5147
vn 0.4044 -0.6857 0.6052
vn 0.2786 -0.6857 0.6725
vn 0.1420 -0.6857 0.7139
vn -0.0000 -0.6857 0.7279
vn -0.1420 -0.6857 0.7139
vn -0.2786 -0.6857 0.6725
vn -0.4044 -0.6857 0.6052
vn -0.5147 -0.6857 0.5147
vn -0.6052 -0.6857 0.4044
vn -0.6725 -0.6857 0.2786
vn -0.7139 -0.6857 0.1420
vn -0.7279 -0.6857 -0.0000
vn -0.7139 -0.6857 -0.1420
vn -0.6725 -0.6857 -0.2786
vn -0.6052 -0.6857 -0.4044
vn -0.2786 -0.6857 -0.6725
vn -0.1420 -0.6857 -0.7139
vt 0.968283 0.000467
vt 0.954109 0.704286
vt 0.952142 0.704286
vt 0.937967 0.000468
vt 0.874533 0.000467
vt 0.860357 0.704286
vt 0.858390 0.704286
vt 0.844217 0.000467
vt 0.062033 0.000467
vt 0.047857 0.704288
vt 0.045890 0.704288
vt 0.031717 0.000467
vt 0.093283 0.000467
vt 0.079109 0.704288
vt 0.077142 0.704288
vt 0.062968 0.000467
vt 0.843283 0.000467
vt 0.829109 0.704287
vt 0.827142 0.704287
vt 0.812967 0.000467
vt 0.343283 0.000467
vt 0.329110 0.704287
vt 0.327143 0.704287
vt 0.312968 0.000467
vt 0.218283 0.000467
vt 0.204108 0.704287
vt 0.202141 0.704288
vt 0.187968 0.000468
vt 0.499533 0.000467
vt 0.485359 0.704287
vt 0.483392 0.704287
vt 0.469218 0.000467
vt 0.812033 0.000467
vt 0.797859 0.704287
vt 0.795892 0.704287
vt 0.781717 0.000467
vt 0.155783 0.000467
vt 0.141607 0.704288
vt 0.139640 0.704288
vt 0.125468 0.000467
vt 0.124533 0.000467
vt 0.110357 0.704288
vt 0.108390 0.704288
vt 0.094218 0.000467
vt 0.905783 0.000467
vt 0.891608 0.704286
vt 0.889641 0.704286
vt 0.875467 0.000467
vt 0.624533 0.000467
vt 0.610359 0.704287
vt 0.608392 0.704287
vt 0.594217 0.000467
vt 0.468283 0.000467
vt 0.454109 0.704287
vt 0.452141 0.704287
vt 0.437968 0.000467
vt 0.187033 0.000467
vt 0.172860 0.704288
vt 0.170893 0.704288
vt 0.156718 0.000467
vt 0.593283 0.000467
vt 0.579109 0.704287
vt 0.577142 0.704287
vt 0.562967 0.000467
vt 0.718283 0.000467
vt 0.704109 0.704287
vt 0.702142 0.704287
vt 0.687968 0.000467
vt 0.780783 0.000467
vt 0.766607 0.704287
vt 0.764640 0.704287
vt 0.750468 0.000467
vt 0.562033 0.000467
vt 0.547857 0.704287
vt 0.545890 0.704287
vt 0.531717 0.000467
vt 0.405783 0.000467
vt 0.391610 0.704287
vt 0.389642 0.704287
vt 0.375468 0.000467
vt 0.249533 0.000468
vt 0.235360 0.704288
vt 0.233392 0.704288
vt 0.219218 0.000467
vt 0.374533 0.000467
vt 0.360359 0.704287
vt 0.358392 0.704287
vt 0.344218 0.000467
vt 0.280783 0.000467
vt 0.266610 0.704287
vt 0.264643 0.704287
vt 0.250468 0.000467
vt 0.530783 0.000467
vt 0.516609 0.704287
vt 0.514642 0.704287
vt 0.500467 0.000467
vt 0.312033 0.000467
vt 0.297860 0.704288
vt 0.295893 0.704288
vt 0.281718 0.000467
vt 0.655783 0.000467
vt 0.641607 0.704287
vt 0.639640 0.704287
vt 0.625467 0.000467
vt 0.749533 0.000467
vt 0.735357 0.704287
vt 0.733390 0.704287
vt 0.719217 0.000467
vt 0.687033 0.000467
vt 0.672859 0.704287
vt 0.670892 0.704287
vt 0.656717 0.000467
vt 0.437033 0.000467
vt 0.422859 0.704287
vt 0.420892 0.704287
vt 0.406718 0.000467
vt 0.030783 0.000467
vt 0.016610 0.704288
vt 0.014642 0.704288
vt 0.000467 0.000467
vt 0.296822 0.485388
vt 0.250000 0.490000
vt 0.203178 0.485388
vt 0.158156 0.471731
vt 0.116663 0.449553
vt 0.080294 0.419706
vt 0.050447 0.383337
vt 0.028269 0.341844
vt 0.014612 0.296822
vt 0.010000 0.250000
vt 0.014612 0.203178
vt 0.028269 0.158156
vt 0.050447 0.116663
vt 0.080294 0.080294
vt 0.116663 0.050447
vt 0.158156 0.028269
vt 0.203178 0.014612
vt 0.250000 0.010000
vt 0.296822 0.014612
vt 0.341844 0.028269
vt 0.383337 0.050447
vt 0.419706 0.080294
vt 0.449553 0.116663
vt 0.471731 0.158156
vt 0.485388 0.203178
vt 0.490000 0.250000
vt 0.485388 0.296822
vt 0.471731 0.341844
vt 0.449553 0.383337
vt 0.419706 0.419706
vt 0.383337 0.449553
vt 0.341844 0.471731
vt 0.999533 0.000467
vt 0.985358 0.704286
vt 0.983391 0.704286
vt 0.969217 0.000468
vt 0.937033 0.000467
vt 0.922859 0.704286
vt 0.920892 0.704286
vt 0.906718 0.000468
vt 0.449812 0.999597
vt 0.433943 0.999597
vt 0.433943 0.000403
vt 0.449812 0.000403
vt 0.750000 0.490000
vt 0.796822 0.485388
vt 0.841844 0.471731
vt 0.883337 0.449553
vt 0.919706 0.419706
vt 0.949553 0.383337
vt 0.971731 0.341844
vt 0.985388 0.296822
vt 0.990000 0.250000
vt 0.985388 0.203178
vt 0.971731 0.158156
vt 0.949553 0.116663
vt 0.919706 0.080294
vt 0.883337 0.050447
vt 0.841844 0.028269
vt 0.796822 0.014612
vt 0.750000 0.010000
vt 0.703178 0.014612
vt 0.658156 0.028269
vt 0.616663 0.050447
vt 0.580294 0.080294
vt 0.550447 0.116663
vt 0.528269 0.158156
vt 0.514612 0.203178
vt 0.510000 0.250000
vt 0.514612 0.296822
vt 0.528269 0.341844
vt 0.550447 0.383337
vt 0.580294 0.419706
vt 0.616663 0.449553
vt 0.658156 0.471731
vt 0.703178 0.485388
vt 0.016272 0.999597
vt 0.000403 0.999597
vt 0.000403 0.000403
vt 0.016272 0.000403
vt 0.082970 0.999597
vt 0.067101 0.999597
vt 0.067101 0.000403
vt 0.082970 0.000403
vt 0.266391 0.999597
vt 0.250522 0.999597
vt 0.250522 0.000403
vt 0.266391 0.000403
vt 0.333089 0.999597
vt 0.317221 0.999597
vt 0.317221 0.000403
vt 0.333089 0.000403
vt 0.099645 0.999597
vt 0.083776 0.999597
vt 0.083776 0.000403
vt 0.099645 0.000403
vt 0.032946 0.999597
vt 0.017078 0.999597
vt 0.017078 0.000403
vt 0.032946 0.000403
vt 0.366439 0.999597
vt 0.350570 0.999597
vt 0.350570 0.000403
vt 0.366439 0.000403
vt 0.283065 0.999597
vt 0.267197 0.999597
vt 0.267197 0.000403
vt 0.283065 0.000403
vt 0.416462 0.999597
vt 0.400594 0.999597
vt 0.400594 0.000403
vt 0.416462 0.000403
vt 0.533185 0.999597
vt 0.517316 0.999597
vt 0.517316 0.000403
vt 0.533185 0.000403
vt 0.466486 0.999597
vt 0.450618 0.999597
vt 0.450618 0.000403
vt 0.466486 0.000403
vt 0.249716 0.999597
vt 0.233848 0.999597
vt 0.233848 0.000403
vt 0.249716 0.000403
vt 0.132994 0.999597
vt 0.117125 0.999597
vt 0.117125 0.000403
vt 0.132994 0.000403
vt 0.316415 0.999597
vt 0.300546 0.999597
vt 0.300546 0.000403
vt 0.316415 0.000403
vt 0.049621 0.999597
vt 0.033752 0.999597
vt 0.033752 0.000403
vt 0.049621 0.000403
vt 0.383113 0.999597
vt 0.367244 0.999597
vt 0.367244 0.000403
vt 0.383113 0.000403
vt 0.149669 0.999597
vt 0.133800 0.999597
vt 0.133800 0.000403
vt 0.149669 0.000403
vt 0.299740 0.999597
vt 0.283871 0.999597
vt 0.283871 0.000403
vt 0.299740 0.000403
vt 0.166343 0.999597
vt 0.150475 0.999597
vt 0.150475 0.000403
vt 0.166343 0.000403
vt 0.183018 0.999597
vt 0.167149 0.999597
vt 0.167149 0.000403
vt 0.183018 0.000403
vt 0.433137 0.999597
vt 0.417268 0.999597
vt 0.417268 0.000403
vt 0.433137 0.000403
vt 0.116319 0.999597
vt 0.100451 0.999597
vt 0.100451 0.000403
vt 0.116319 0.000403
vt 0.199692 0.999597
vt 0.183824 0.999597
vt 0.183824 0.000403
vt 0.199692 0.000403
vt 0.483161 0.999597
vt 0.467292 0.999597
vt 0.467292 0.000403
vt 0.483161 0.000403
vt 0.516510 0.999597
vt 0.500641 0.999597
vt 0.500641 0.000403
vt 0.516510 0.000403
vt 0.216367 0.999597
vt 0.200498 0.999597
vt 0.200498 0.000403
vt 0.216367 0.000403
vt 0.399788 0.999597
vt 0.383919 0.999597
vt 0.383919 0.000403
vt 0.399788 0.000403
vt 0.066296 0.999597
vt 0.050427 0.999597
vt 0.050427 0.000403
vt 0.066296 0.000403
vt 0.349764 0.999597
vt 0.333895 0.999597
vt 0.333895 0.000403
vt 0.349764 0.000403
vt 0.233042 0.999597
vt 0.217173 0.999597
vt 0.217173 0.000403
vt 0.233042 0.000403
vt 0.499835 0.999597
vt 0.483967 0.999597
vt 0.483967 0.000403
vt 0.499835 0.000403
s 1
f 1/1/1 2/2/2 4/3/3 3/4/4
f 3/5/4 4/6/3 6/7/5 5/8/6
f 5/9/6 6/10/5 8/11/7 7/12/8
f 7/13/8 8/14/7 10/15/9 9/16/10
f 9/17/10 10/18/9 12/19/11 11/20/12
f 11/21/12 12/22/11 14/23/13 13/24/14
f 13/25/14 14/26/13 16/27/15 15/28/16
f 15/29/16 16/30/15 18/31/17 17/32/18
f 17/33/18 18/34/17 20/35/19 19/36/20
f 19/37/20 20/38/19 22/39/21 21/40/22
f 21/41/22 22/42/21 24/43/23 23/44/24
f 23/45/24 24/46/23 26/47/25 25/48/26
f 25/49/26 26/50/25 28/51/27 27/52/28
f 27/53/28 28/54/27 30/55/29 29/56/30
f 29/57/30 30/58/29 32/59/31 31/60/32
f 31/61/32 32/62/31 34/63/33 33/64/34
f 33/65/34 34/66/33 36/67/35 35/68/36
f 35/69/36 36/70/35 38/71/37 37/72/38
f 37/73/38 38/74/37 40/75/39 39/76/40
f 39/77/40 40/78/39 42/79/41 41/80/42
f 41/81/42 42/82/41 44/83/43 43/84/44
f 43/85/44 44/86/43 46/87/45 45/88/46
f 45/89/46 46/90/45 48/91/47 47/92/48
f 47/93/48 48/94/47 50/95/49 49/96/50
f 49/97/50 50/98/49 52/99/51 51/100/52
f 51/101/52 52/102/51 54/103/53 53/104/54
f 53/105/54 54/106/53 56/107/55 55/108/56
f 55/109/56 56/110/55 58/111/57 57/112/58
f 57/113/58 58/114/57 60/115/59 59/116/60
f 59/117/60 60/118/59 62/119/61 61/120/62
f 4/121/3 2/122/2 64/123/63 62/124/61 60/125/59 58/126/57 56/127/55 54/128/53 52/129/51 50/130/49 48/131/47 46/132/45 44/133/43 42/134/41 40/135/39 38/136/37 36/137/35 34/138/33 32/139/31 30/140/29 28/141/27 26/142/25 24/143/23 22/144/21 20/145/19 18/146/17 16/147/15 14/148/13 12/149/11 10/150/9 8/151/7 6/152/5
f 61/153/62 62/154/61 64/155/63 63/156/64
f 63/157/64 64/158/63 2/159/2 1/160/1
f 57/161/58 59/162/60 94/163/65 93/164/66
f 65/165/67 66/166/68 67/167/69 68/168/70 69/169/71 70/170/72 71/171/73 72/172/74 73/173/75 74/174/76 75/175/77 76/176/78 77/177/79 78/178/80 79/179/81 80/180/82 81/181/83 82/182/84 83/183/85 84/184/86 85/185/87 86/186/88 87/187/89 88/188/90 89/189/91 90/190/92 91/191/93 92/192/94 93/193/66 94/194/65 95/195/95 96/196/96
f 13/197/14 15/198/16 72/199/74 71/200/73
f 31/201/32 33/202/34 81/203/83 80/204/82
f 49/205/50 51/206/52 90/207/92 89/208/91
f 5/209/6 7/210/8 68/211/70 67/212/69
f 23/213/24 25/214/26 77/215/79 76/216/78
f 41/217/42 43/218/44 86/219/88 85/220/87
f 59/221/60 61/222/62 95/223/95 94/224/65
f 15/225/16 17/226/18 73/227/75 72/228/74
f 33/229/34 35/230/36 82/231/84 81/232/83
f 51/233/52 53/234/54 91/235/93 90/236/92
f 7/237/8 9/238/10 69/239/71 68/240/70
f 25/241/26 27/242/28 78/243/80 77/244/79
f 43/245/44 45/246/46 87/247/89 86/248/88
f 61/249/62 63/250/64 96/251/96 95/252/95
f 17/253/18 19/254/20 74/255/76 73/256/75
f 35/257/36 37/258/38 83/259/85 82/260/84
f 53/261/54 55/262/56 92/263/94 91/264/93
f 9/265/10 11/266/12 70/267/72 69/268/71
f 27/269/28 29/270/30 79/271/81 78/272/80
f 45/273/46 47/274/48 88/275/90 87/276/89
f 1/277/1 3/278/4 66/279/68 65/280/67
f 63/281/64 1/282/1 65/283/67 96/284/96
f 19/285/20 21/286/22 75/287/77 74/288/76
f 37/289/38 39/290/40 84/291/86 83/292/85
f 55/293/56 57/294/58 93/295/66 92/296/94
f 11/297/12 13/298/14 71/299/73 70/300/72
f 29/301/30 31/302/32 80/303/82 79/304/81
f 47/305/48 49/306/50 89/307/91 88/308/90
f 3/309/4 5/310/6 67/311/69 66/312/68
f 21/313/22 23/314/24 76/315/78 75/316/77
f 39/317/40 41/318/42 85/319/87 84/320/86
o Cube.001
v -0.215421 -0.203859 -0.964032
v -0.215421 0.339951 -0.964032
v -0.716112 -0.203859 -0.991596
v -0.210911 -0.203859 -1.045950
v -0.210911 0.339951 -1.045950
v -0.711602 -0.203859 -1.073514
v 0.215421 -0.203859 -0.964032
v 0.215421 0.339952 -0.964032
v 0.716112 -0.203859 -0.991596
v 0.210911 -0.203859 -1.045950
v 0.210911 0.339952 -1.045950
v 0.711602 -0.203859 -1.073514
vn 0.9985 -0.0000 0.0550
vn -0.0000 -1.0000 -0.0000
vn -0.7340 0.6779 -0.0404
vn 0.0550 -0.0000 -0.9985
vn -0.0550 -0.0000 0.9985
vn -0.9985 -0.0000 0.0550
vn 0.7340 0.6779 -0.0404
vn -0.0550 -0.0000 -0.9985
vn 0.0550 -0.0000 0.9985
vt 0.375000 0.750000
vt 0.625000 0.750000
vt 0.625000 1.000000
vt 0.375000 1.000000
vt 0.125000 0.500000
vt 0.375000 0.500000
vt 0.125000 0.750000
s 0
f 100/321/97 101/322/97 98/323/97 97/324/97
f 99/325/98 102/326/98 100/321/98 97/327/98
f 99/325/99 98/323/99 101/322/99 102/326/99
f 100/321/100 102/326/100 101/322/100
f 97/324/101 98/323/101 99/325/101
f 106/321/102 103/324/102 104/323/102 107/322/102
f 105/325/98 103/327/98 106/321/98 108/326/98
f 105/325/103 108/326/103 107/322/103 104/323/103
f 106/321/104 107/322/104 108/326/104
f 103/324/105 105/325/105 104/323/105
o Cube
v 0.056642 -0.164530 -0.777697
v 0.056642 0.379280 -0.777697
v 0.048483 -0.164530 -0.276315
v -0.025389 -0.164530 -0.779032
v -0.025389 0.379280 -0.779032
v -0.033547 -0.164530 -0.277649
v 0.056642 -0.164530 -1.222303
v 0.056642 0.379280 -1.222303
v 0.048484 -0.164530 -1.723685
v -0.025389 -0.164530 -1.220968
v -0.025389 0.379280 -1.220968
v -0.033547 -0.164530 -1.722351
vn 0.0163 -0.0000 -0.9999
vn -0.0000 -1.0000 -0.0000
vn -0.0120 0.6779 0.7351
vn -0.9999 -0.0000 -0.0163
vn 0.9999 -0.0000 0.0163
vn 0.0163 -0.0000 0.9999
vn -0.0120 0.6779 -0.7351
vn -0.9999 -0.0000 0.0163
vn 0.9999 -0.0000 -0.0163
vt 0.375000 0.750000
vt 0.625000 0.750000
vt 0.625000 1.000000
vt 0.375000 1.000000
vt 0.125000 0.500000
vt 0.375000 0.500000
vt 0.125000 0.750000
s 0
f 112/328/106 113/329/106 110/330/106 109/331/106
f 111/332/107 114/333/107 112/328/107 109/334/107
f 111/332/108 110/330/108 113/329/108 114/333/108
f 112/328/109 114/333/109 113/329/109
f 109/331/110 110/330/110 111/332/110
f 118/328/111 115/331/111 116/330/111 119/329/111
f 117/332/107 115/334/107 118/328/107 120/333/107
f 117/332/112 120/333/112 119/329/112 116/330/112
f 118/328/113 119/329/113 120/333/113
f 115/331/114 117/332/114 116/330/114
