# Blender 4.0.2
# www.blender.org
mtllib scrap.mtl
o Plane
v -0.385597 0.771927 -0.035243
v -0.364996 -0.608952 -0.035243
v 0.332106 0.442304 -0.035243
v 0.558722 -0.402938 -0.035244
v -0.529807 0.194944 -0.035243
v 0.496917 0.071335 -0.035243
v -0.941836 -0.203408 -0.035243
v 0.908946 -0.048898 -0.035244
v -0.131873 0.668920 -0.035243
v -0.028865 -0.784065 -0.035243
v -0.177801 0.162894 -0.035243
v -0.177801 -0.202260 -0.035243
v 0.197996 -0.475043 -0.035243
v 0.093345 0.162894 -0.035243
v 0.093345 -0.202260 -0.035243
v 0.136192 0.452605 -0.035243
vn -0.0000 -0.0000 1.0000
vt 0.442927 0.586911
vt 0.563823 0.734540
vt 0.406205 0.915858
vt 0.092035 1.000000
vt 0.057544 0.399339
vt 0.235766 0.468766
vt 0.157135 0.727345
vt 0.000000 0.513818
vt 0.419203 0.104868
vt 0.778508 0.000000
vt 0.530656 0.433083
vt 0.323495 0.314938
vt 0.045208 0.000000
vt 0.021555 0.177271
vt 0.821947 0.458467
vt 0.812539 0.705819
s 0
usemtl Material.001
f 15/1/1 13/2/1 4/3/1 8/4/1
f 16/5/1 14/6/1 6/7/1 3/8/1
f 14/6/1 15/1/1 8/4/1 6/7/1
f 5/9/1 7/10/1 12/11/1 11/12/1
f 1/13/1 5/9/1 11/12/1 9/14/1
f 7/10/1 2/15/1 10/16/1 12/11/1
f 11/12/1 12/11/1 15/1/1 14/6/1
f 9/14/1 11/12/1 14/6/1 16/5/1
f 12/11/1 10/16/1 13/2/1 15/1/1
