{"accessors":[{"bufferView":0,"byteOffset":0,"componentType":5126,"count":34,"max":[1,0.999979,0.999979],"min":[-2.512782,-1,-1],"normalized":false,"type":"VEC3"},{"bufferView":1,"byteOffset":0,"componentType":5126,"count":34,"max":[1,1,0.000109,1],"min":[-1,-0.00003,-0.000047,1],"normalized":false,"type":"VEC4"},{"bufferView":2,"byteOffset":0,"componentType":5126,"count":34,"max":[0.555212,1,1],"min":[-1,-1,-1],"normalized":false,"type":"VEC3"},{"bufferView":3,"byteOffset":0,"componentType":5126,"count":34,"max":[0.874998,1],"min":[0.124987,0],"normalized":false,"type":"VEC2"},{"bufferView":4,"byteOffset":0,"componentType":5125,"count":60,"max":[33],"min":[0],"normalized":false,"type":"SCALAR"},{"bufferView":5,"byteOffset":0,"componentType":5126,"count":1703,"max":[2.714436,3.454188,2.259202],"min":[-3.454189,0,-4.892907],"normalized":false,"type":"VEC3"},{"bufferView":6,"byteOffset":0,"componentType":5126,"count":1703,"max":[0.981892,0.927742,0.999173,1],"min":[-1,-0.999996,-0.627625,1],"normalized":false,"type":"VEC4"},{"bufferView":7,"byteOffset":0,"componentType":5126,"count":1703,"max":[0.945764,1,0.999999],"min":[-0.999827,-1,-1],"normalized":false,"type":"VEC3"},{"bufferView":8,"byteOffset":0,"componentType":5125,"count":3408,"max":[1535],"min":[0],"normalized":false,"type":"SCALAR"},{"bufferView":9,"byteOffset":0,"componentType":5126,"count":99,"max":[3.776236,1,5.756009],"min":[-3.81313,-1,-1.424601],"normalized":false,"type":"VEC3"},{"bufferView":10,"byteOffset":0,"componentType":5126,"count":99,"max":[1,1,0.332848,1],"min":[-0.999432,-0.000019,-0.332982,-1],"normalized":false,"type":"VEC4"},{"bufferView":11,"byteOffset":0,"componentType":5126,"count":99,"max":[0.486645,1,0.999432],"min":[-0.682328,-1,-0.999432],"normalized":false,"type":"VEC3"},{"bufferView":12,"byteOffset":0,"componentType":5126,"count":99,"max":[0.875,1],"min":[0.125,0],"normalized":false,"type":"VEC2"},{"bufferView":13,"byteOffset":0,"componentType":5125,"count":168,"max":[95],"min":[0],"normalized":false,"type":"SCALAR"},{"bufferView":14,"byteOffset":0,"componentType":5126,"count":48,"max":[2.604849,0.999979,7.291103],"min":[-1.40827,-1,-1],"normalized":false,"type":"VEC3"},{"bufferView":15,"byteOffset":0,"componentType":5126,"count":48,"max":[0.999586,1,0.242338,1],"min":[-0.998647,-0.000044,-0.24237,-1],"normalized":false,"type":"VEC4"},{"bufferView":16,"byteOffset":0,"componentType":5126,"count":48,"max":[0.824014,1,0.980397],"min":[-0.761783,-1,-0.980408],"normalized":false,"type":"VEC3"},{"bufferView":17,"byteOffset":0,"componentType":5126,"count":48,"max":[0.874998,1],"min":[0.124987,0],"normalized":false,"type":"VEC2"},{"bufferView":18,"byteOffset":0,"componentType":5125,"count":72,"max":[47],"min":[0],"normalized":false,"type":"SCALAR"}],"asset":{"generator":"Godot Engine v4.2.2.stable.official@15073afe3856abd2aa1622492fe50026c7d63dc1","version":"2.0"},"bufferViews":[{"buffer":0,"byteLength":408,"byteOffset":0},{"buffer":0,"byteLength":544,"byteOffset":408},{"buffer":0,"byteLength":408,"byteOffset":952},{"buffer":0,"byteLength":272,"byteOffset":1360},{"buffer":0,"byteLength":240,"byteOffset":1632},{"buffer":0,"byteLength":20436,"byteOffset":1872},{"buffer":0,"byteLength":27248,"byteOffset":22308},{"buffer":0,"byteLength":20436,"byteOffset":49556},{"buffer":0,"byteLength":13632,"byteOffset":69992},{"buffer":0,"byteLength":1188,"byteOffset":83624},{"buffer":0,"byteLength":1584,"byteOffset":84812},{"buffer":0,"byteLength":1188,"byteOffset":86396},{"buffer":0,"byteLength":792,"byteOffset":87584},{"buffer":0,"byteLength":672,"byteOffset":88376},{"buffer":0,"byteLength":576,"byteOffset":89048},{"buffer":0,"byteLength":768,"byteOffset":89624},{"buffer":0,"byteLength":576,"byteOffset":90392},{"buffer":0,"byteLength":384,"byteOffset":90968},{"buffer":0,"byteLength":288,"byteOffset":91352}],"buffers":[{"byteLength":91640,"uri":"attacker_ship0.bin"}],"extensions":{"OMI_collider":{"colliders":[{"size":[1.90499997138977,0.639999985694885,2.12599992752075],"type":"box"},{"isTrigger":true,"size":[1,0.639586985111237,1.46484005451202],"type":"box"}]}},"extensionsUsed":["GODOT_single_root","OMI_collider","OMI_physics_body"],"materials":[{"extensions":{},"pbrMetallicRoughness":{"baseColorFactor":[0.99999988079071,0.99999988079071,0.99999988079071,1],"metallicFactor":0,"roughnessFactor":1}},{"extensions":{},"pbrMetallicRoughness":{"baseColorFactor":[0.99999988079071,0.99999988079071,0.99999988079071,1],"metallicFactor":0,"roughnessFactor":1}},{"extensions":{},"pbrMetallicRoughness":{"baseColorFactor":[0.99999988079071,0.99999988079071,0.99999988079071,1],"metallicFactor":0,"roughnessFactor":1}},{"doubleSided":true,"extensions":{},"name":"Material_001","pbrMetallicRoughness":{"baseColorFactor":[0.799999892711639,0.799999892711639,0.799999892711639,1],"metallicFactor":0,"roughnessFactor":0.5}}],"meshes":[{"extras":{"targetNames":[]},"primitives":[{"attributes":{"NORMAL":2,"POSITION":0,"TANGENT":1,"TEXCOORD_0":3},"indices":4,"material":0,"mode":4}]},{"extras":{"targetNames":[]},"primitives":[{"attributes":{"NORMAL":7,"POSITION":5,"TANGENT":6},"indices":8,"material":1,"mode":4}]},{"extras":{"targetNames":[]},"primitives":[{"attributes":{"NORMAL":11,"POSITION":9,"TANGENT":10,"TEXCOORD_0":12},"indices":13,"material":2,"mode":4}]},{"extras":{"targetNames":[]},"primitives":[{"attributes":{"NORMAL":16,"POSITION":14,"TANGENT":15,"TEXCOORD_0":17},"indices":18,"material":3,"mode":4}]}],"nodes":[{"children":[1,3,4,9,11,13],"extensions":{"OMI_physics_body":{"type":"character"}},"name":"AttackerShip"},{"children":[2],"extensions":{},"name":"Path3D"},{"extensions":{},"name":"PathFollow3D","rotation":[-0.5,-0.5,0.5,-0.5]},{"extensions":{"OMI_collider":{"collider":0}},"name":"CollisionShape3D","translation":[0,0.0414123982191086,0.0981445014476776]},{"children":[5,6,7],"extensions":{},"name":"crab_plane","rotation":[0,0.70710676908493,0,0.70710676908493],"scale":[0.281637012958527,0.281637012958527,0.281637012958527],"translation":[0,0.297383993864059,0]},{"extensions":{},"mesh":0,"name":"Cube_003","scale":[1.75740087032318,0.906580626964569,0.818574547767639],"translation":[-0.09588478505611,-0.57758957147598,-0.19288033246994]},{"extensions":{},"mesh":1,"name":"BezierCurve","rotation":[-0.10737396776676,-0.11787258088589,-0.29724904894829,0.941392481327057],"scale":[-1.24075210094452,-2.14662909507751,-1.24075210094452],"translation":[-4.44454002380371,1.8355325460434,-2.18306970596313]},{"children":[8],"extensions":{},"mesh":2,"name":"Cube_004","rotation":[0,0,1,0.000000162920684942947],"scale":[1,0.402786880731583,1],"translation":[1.83980512619019,-0.88188678026199,-2.35858416557312]},{"extensions":{},"mesh":3,"name":"Cube","scale":[1,1.18615400791168,1],"translation":[1.9923574924469,0,-0.97984790802002]},{"children":[10],"extensions":{"OMI_physics_body":{"type":"trigger"}},"name":"HealthArea"},{"extensions":{"OMI_collider":{"collider":1}},"name":"CollisionShape3D2","translation":[0,0.0414123982191086,-0.23242199420929]},{"children":[12],"extensions":{"OMI_physics_body":{"type":"trigger"}},"name":"MissileTarget"},{"extensions":{"OMI_collider":{"collider":1}},"name":"CollisionShape3D3","translation":[0,0.0414123982191086,-0.23242199420929]},{"children":[14],"extensions":{},"name":"StateChart"},{"children":[15,16,18],"extensions":{},"name":"Active"},{"extensions":{},"name":"Sleep"},{"children":[17],"extensions":{},"name":"Asleep"},{"extensions":{},"name":"Awake"},{"extensions":{},"name":"Awake2"}],"scene":0,"scenes":[{"nodes":[0]}]}