# Blender 4.0.2
# www.blender.org
mtllib lowpoly_asteroid.mtl
o Cube.009
v -0.941732 -1.064757 1.035946
v -1.039893 -1.366530 -0.608364
v -1.071541 0.227184 1.345339
v 0.096011 -1.095105 0.893478
v 1.166148 -0.734180 0.643466
v 0.124760 -1.689538 0.077906
v -0.202858 -0.238212 1.221290
v 1.222679 -0.366417 0.744344
v 0.224196 1.181629 0.713637
v -0.923097 1.214526 0.836653
v 0.725036 0.826010 0.716509
v 0.399541 1.798135 0.078517
v 0.165762 1.383277 -1.281282
v 1.221213 1.069126 -0.341570
v -1.525524 1.183089 -0.376615
v -1.106764 0.937367 -1.099124
v -1.746238 0.117263 -0.058931
v -1.248522 0.023065 -1.520229
v -0.733404 -1.165946 -1.000969
v 0.108199 0.084688 -1.584273
v 1.180848 0.089069 -1.245219
v 0.376473 -1.245416 -1.221211
v 0.773985 -1.241135 -1.059854
v 0.925769 -0.971845 -0.524195
v 1.617168 -0.120366 -0.446438
v 1.036006 0.696368 -0.661056
vn -0.4753 -0.6008 0.6427
vn -0.4729 0.0725 0.8781
vn -0.9979 -0.0499 0.0421
vn -0.6287 -0.7666 -0.1305
vn 0.1636 -0.9793 0.1192
vn 0.2014 -0.6818 0.7033
vn 0.1876 -0.0323 0.9817
vn 0.6599 -0.5785 0.4794
vn 0.7203 -0.1186 0.6835
vn 0.7373 -0.6720 -0.0695
vn 0.2542 0.6285 0.7352
vn -0.3742 0.6503 0.6611
vn 0.5831 0.3636 0.7265
vn 0.2672 0.9585 0.0991
vn -0.7523 0.6570 -0.0493
vn 0.8166 0.5765 -0.0289
vn 0.1438 0.7017 -0.6978
vn -0.5313 0.5551 -0.6400
vn 0.6618 0.4851 -0.5716
vn -0.5891 -0.0721 -0.8048
vn -0.3842 -0.6662 -0.6392
vn 0.1326 0.0359 -0.9905
vn 0.2103 -0.6591 -0.7221
vn 0.6839 0.0512 -0.7278
vn 0.5992 -0.6261 -0.4989
vn 0.9947 -0.0572 -0.0852
vt 0.375000 0.000000
vt 0.500000 0.000000
vt 0.500000 0.125000
vt 0.375000 0.125000
vt 0.125000 0.625000
vt 0.250000 0.625000
vt 0.250000 0.750000
vt 0.125000 0.750000
vt 0.375000 0.875000
vt 0.500000 0.875000
vt 0.500000 1.000000
vt 0.375000 1.000000
vt 0.375000 0.750000
vt 0.500000 0.750000
vt 0.375000 0.625000
vt 0.625000 0.875000
vt 0.625000 1.000000
vt 0.625000 0.750000
vt 0.750000 0.625000
vt 0.875000 0.625000
vt 0.875000 0.750000
vt 0.750000 0.750000
vt 0.625000 0.625000
vt 0.750000 0.500000
vt 0.875000 0.500000
vt 0.625000 0.500000
vt 0.625000 0.125000
vt 0.625000 0.250000
vt 0.500000 0.250000
vt 0.625000 0.000000
vt 0.375000 0.250000
vt 0.500000 0.375000
vt 0.375000 0.375000
vt 0.625000 0.375000
vt 0.500000 0.500000
vt 0.375000 0.500000
vt 0.125000 0.500000
vt 0.250000 0.500000
vt 0.500000 0.625000
s 1
usemtl Asteroid_Mat
f 1/1/1 3/2/2 17/3/3 2/4/4
f 2/5/4 6/6/5 4/7/6 1/8/1
f 4/9/6 7/10/7 3/11/2 1/12/1
f 5/13/8 8/14/9 7/10/7 4/9/6
f 6/6/5 24/15/10 5/13/8 4/7/6
f 7/10/7 9/16/11 10/17/12 3/11/2
f 8/14/9 11/18/13 9/16/11 7/10/7
f 12/19/14 15/20/15 10/21/12 9/22/11
f 14/23/16 12/19/14 9/22/11 11/18/13
f 13/24/17 16/25/18 15/20/15 12/19/14
f 26/26/19 13/24/17 12/19/14 14/23/16
f 17/3/3 15/27/15 16/28/18 18/29/20
f 3/2/2 10/30/12 15/27/15 17/3/3
f 2/4/4 17/3/3 18/29/20 19/31/21
f 19/31/21 18/29/20 20/32/22 22/33/23
f 18/29/20 16/28/18 13/34/17 20/32/22
f 22/33/23 20/32/22 21/35/24 23/36/25
f 20/32/22 13/34/17 26/26/19 21/35/24
f 19/37/21 22/38/23 6/6/5 2/5/4
f 22/38/23 23/36/25 24/15/10 6/6/5
f 23/36/25 21/35/24 25/39/26 24/15/10
f 24/15/10 25/39/26 8/14/9 5/13/8
f 25/39/26 14/23/16 11/18/13 8/14/9
f 21/35/24 26/26/19 14/23/16 25/39/26
